name rise30.3154peak39.0474fall46.5389.mot
datacolumns 19
datarows 39
range 6.263314 6.326645
endheader
time	ground_force1_vx	ground_force1_vy	ground_force1_vz	ground_force1_px	ground_force1_py	ground_force1_pz	ground_force2_vx	ground_force2_vy	ground_force2_vz	ground_force2_px	ground_force2_py	ground_force2_pz	ground_torque1_x	ground_torque1_y	ground_torque1_z	ground_torque2_x	ground_torque2_y	ground_torque2_z	
6.263314	15.136402	695.417354	43.851824	0.221679	0.000000	0.136494	0.000000	0.000000	0.000000	0.000000	0.000000	0.000000	0.000000	14.351113	0.000000	0.000000	0.000000	0.000000	
6.264979	14.971161	695.706275	43.788285	0.220896	0.000000	0.136431	0.000000	0.000000	0.000000	0.000000	0.000000	0.000000	0.000000	14.306460	0.000000	0.000000	0.000000	0.000000	
6.266649	14.806313	696.061693	43.740153	0.220141	0.000000	0.136368	0.000000	0.000000	0.000000	0.000000	0.000000	0.000000	0.000000	14.270977	0.000000	0.000000	0.000000	0.000000	
6.268311	14.641084	696.482910	43.707291	0.219413	0.000000	0.136306	0.000000	0.000000	0.000000	0.000000	0.000000	0.000000	0.000000	14.244686	0.000000	0.000000	0.000000	0.000000	
6.269984	14.474671	696.969142	43.689531	0.218712	0.000000	0.136245	0.000000	0.000000	0.000000	0.000000	0.000000	0.000000	0.000000	14.227592	0.000000	0.000000	0.000000	0.000000	
6.271647	14.306243	697.519516	43.686674	0.218033	0.000000	0.136185	0.000000	0.000000	0.000000	0.000000	0.000000	0.000000	0.000000	14.219684	0.000000	0.000000	0.000000	0.000000	
6.273317	14.134948	698.133081	43.698491	0.217377	0.000000	0.136127	0.000000	0.000000	0.000000	0.000000	0.000000	0.000000	0.000000	14.220937	0.000000	0.000000	0.000000	0.000000	
6.274982	13.959914	698.808808	43.724727	0.216740	0.000000	0.136070	0.000000	0.000000	0.000000	0.000000	0.000000	0.000000	0.000000	14.231308	0.000000	0.000000	0.000000	0.000000	
6.276649	13.780256	699.545596	43.765097	0.216120	0.000000	0.136014	0.000000	0.000000	0.000000	0.000000	0.000000	0.000000	0.000000	14.250739	0.000000	0.000000	0.000000	0.000000	
6.278310	13.595079	700.342273	43.819289	0.215515	0.000000	0.135959	0.000000	0.000000	0.000000	0.000000	0.000000	0.000000	0.000000	14.279156	0.000000	0.000000	0.000000	0.000000	
6.279979	13.403483	701.197603	43.886968	0.214922	0.000000	0.135907	0.000000	0.000000	0.000000	0.000000	0.000000	0.000000	0.000000	14.316471	0.000000	0.000000	0.000000	0.000000	
6.281650	13.204565	702.110289	43.967773	0.214339	0.000000	0.135855	0.000000	0.000000	0.000000	0.000000	0.000000	0.000000	0.000000	14.362579	0.000000	0.000000	0.000000	0.000000	
6.283315	12.997428	703.078977	44.061322	0.213762	0.000000	0.135806	0.000000	0.000000	0.000000	0.000000	0.000000	0.000000	0.000000	14.417360	0.000000	0.000000	0.000000	0.000000	
6.284976	12.781181	704.102259	44.167211	0.213189	0.000000	0.135758	0.000000	0.000000	0.000000	0.000000	0.000000	0.000000	0.000000	14.480682	0.000000	0.000000	0.000000	0.000000	
6.286645	12.554947	705.178677	44.285015	0.212617	0.000000	0.135712	0.000000	0.000000	0.000000	0.000000	0.000000	0.000000	0.000000	14.552395	0.000000	0.000000	0.000000	0.000000	
6.288316	12.317866	706.306726	44.414292	0.212043	0.000000	0.135668	0.000000	0.000000	0.000000	0.000000	0.000000	0.000000	0.000000	14.632338	0.000000	0.000000	0.000000	0.000000	
6.289976	12.069099	707.484860	44.554582	0.211466	0.000000	0.135626	0.000000	0.000000	0.000000	0.000000	0.000000	0.000000	0.000000	14.720334	0.000000	0.000000	0.000000	0.000000	
6.291645	11.807834	708.711493	44.705409	0.210881	0.000000	0.135586	0.000000	0.000000	0.000000	0.000000	0.000000	0.000000	0.000000	14.816195	0.000000	0.000000	0.000000	0.000000	
6.293333	11.533290	709.985003	44.866283	0.210287	0.000000	0.135548	0.000000	0.000000	0.000000	0.000000	0.000000	0.000000	0.000000	14.919720	0.000000	0.000000	0.000000	0.000000	
6.294983	11.244718	711.303736	45.036703	0.209681	0.000000	0.135512	0.000000	0.000000	0.000000	0.000000	0.000000	0.000000	0.000000	15.030694	0.000000	0.000000	0.000000	0.000000	
6.296650	10.941411	712.666008	45.216155	0.209060	0.000000	0.135478	0.000000	0.000000	0.000000	0.000000	0.000000	0.000000	0.000000	15.148895	0.000000	0.000000	0.000000	0.000000	
6.298317	10.622702	714.070108	45.404117	0.208422	0.000000	0.135447	0.000000	0.000000	0.000000	0.000000	0.000000	0.000000	0.000000	15.274086	0.000000	0.000000	0.000000	0.000000	
6.299982	10.287973	715.514304	45.600057	0.207766	0.000000	0.135417	0.000000	0.000000	0.000000	0.000000	0.000000	0.000000	0.000000	15.406022	0.000000	0.000000	0.000000	0.000000	
6.301648	9.936654	716.996839	45.803440	0.207089	0.000000	0.135390	0.000000	0.000000	0.000000	0.000000	0.000000	0.000000	0.000000	15.544450	0.000000	0.000000	0.000000	0.000000	
6.303313	9.568226	718.515941	46.013725	0.206390	0.000000	0.135365	0.000000	0.000000	0.000000	0.000000	0.000000	0.000000	0.000000	15.689106	0.000000	0.000000	0.000000	0.000000	
6.304992	9.182230	720.069822	46.230368	0.205666	0.000000	0.135343	0.000000	0.000000	0.000000	0.000000	0.000000	0.000000	0.000000	15.839721	0.000000	0.000000	0.000000	0.000000	
6.306642	8.778263	721.656678	46.452825	0.204917	0.000000	0.135322	0.000000	0.000000	0.000000	0.000000	0.000000	0.000000	0.000000	15.996018	0.000000	0.000000	0.000000	0.000000	
6.308312	8.355983	723.274696	46.680551	0.204141	0.000000	0.135304	0.000000	0.000000	0.000000	0.000000	0.000000	0.000000	0.000000	16.157714	0.000000	0.000000	0.000000	0.000000	
6.309976	7.915111	724.922054	46.913005	0.203338	0.000000	0.135288	0.000000	0.000000	0.000000	0.000000	0.000000	0.000000	0.000000	16.324524	0.000000	0.000000	0.000000	0.000000	
6.311649	7.455432	726.596922	47.149649	0.202506	0.000000	0.135274	0.000000	0.000000	0.000000	0.000000	0.000000	0.000000	0.000000	16.496157	0.000000	0.000000	0.000000	0.000000	
6.313311	6.976799	728.297466	47.389950	0.201645	0.000000	0.135262	0.000000	0.000000	0.000000	0.000000	0.000000	0.000000	0.000000	16.672319	0.000000	0.000000	0.000000	0.000000	
6.314978	6.479130	730.021845	47.633383	0.200755	0.000000	0.135252	0.000000	0.000000	0.000000	0.000000	0.000000	0.000000	0.000000	16.852714	0.000000	0.000000	0.000000	0.000000	
6.316650	5.962412	731.768220	47.879431	0.199836	0.000000	0.135245	0.000000	0.000000	0.000000	0.000000	0.000000	0.000000	0.000000	17.037048	0.000000	0.000000	0.000000	0.000000	
6.318310	5.426698	733.534750	48.127587	0.198887	0.000000	0.135238	0.000000	0.000000	0.000000	0.000000	0.000000	0.000000	0.000000	17.225022	0.000000	0.000000	0.000000	0.000000	
6.319984	4.872113	735.319595	48.377354	0.197910	0.000000	0.135234	0.000000	0.000000	0.000000	0.000000	0.000000	0.000000	0.000000	17.416343	0.000000	0.000000	0.000000	0.000000	
6.321644	4.298845	737.120916	48.628249	0.196904	0.000000	0.135232	0.000000	0.000000	0.000000	0.000000	0.000000	0.000000	0.000000	17.610716	0.000000	0.000000	0.000000	0.000000	
6.323313	3.707154	738.936881	48.879804	0.195871	0.000000	0.135231	0.000000	0.000000	0.000000	0.000000	0.000000	0.000000	0.000000	17.807849	0.000000	0.000000	0.000000	0.000000	
6.324979	3.097362	740.765660	49.131562	0.194811	0.000000	0.135231	0.000000	0.000000	0.000000	0.000000	0.000000	0.000000	0.000000	18.007454	0.000000	0.000000	0.000000	0.000000	
6.326645	2.469860	742.605430	49.383087	0.193726	0.000000	0.135233	0.000000	0.000000	0.000000	0.000000	0.000000	0.000000	0.000000	18.209246	0.000000	0.000000	0.000000	0.000000	
